<svg width="261" height="64" viewBox="0 0 261 64" fill="none" xmlns="http://www.w3.org/2000/svg">
<path d="M-1.07288e-06 6C1.33333 6.05334 3.12 6.10667 5.36 6.16C7.65333 6.21333 9.92 6.24 12.16 6.24C14.72 6.24 17.2 6.21333 19.6 6.16C22 6.10667 23.7067 6.08 24.72 6.08C32.1333 6.08 37.68 7.54667 41.36 10.48C45.04 13.4133 46.88 17.2 46.88 21.84C46.88 23.76 46.5067 25.7867 45.76 27.92C45.0133 30 43.7333 31.9467 41.92 33.76C40.16 35.52 37.7333 36.96 34.64 38.08C31.5467 39.2 27.6533 39.76 22.96 39.76H14.8V38.16H22.16C25.3067 38.16 27.68 37.44 29.28 36C30.9333 34.56 32.0533 32.6667 32.64 30.32C33.28 27.9733 33.6 25.44 33.6 22.72C33.6 17.6533 32.8533 13.8667 31.36 11.36C29.8667 8.85333 27.3067 7.6 23.68 7.6C21.6 7.6 20.24 8.05334 19.6 8.96C19.0133 9.86667 18.72 11.7067 18.72 14.48V53.68C18.72 55.76 18.9333 57.3067 19.36 58.32C19.7867 59.3333 20.6133 60 21.84 60.32C23.0667 60.64 24.88 60.8267 27.28 60.88V62.64C25.6267 62.5867 23.4933 62.5333 20.88 62.48C18.2667 62.4267 15.52 62.4 12.64 62.4C10.3467 62.4 8.10667 62.4267 5.92 62.48C3.73333 62.5333 1.76 62.5867 -1.07288e-06 62.64V61.04C1.70667 60.9333 2.98667 60.72 3.84 60.4C4.69333 60.08 5.25333 59.44 5.52 58.48C5.84 57.52 6 56.08 6 54.16V14.48C6 12.5067 5.84 11.0667 5.52 10.16C5.25333 9.2 4.66667 8.56 3.76 8.24C2.90667 7.86667 1.65333 7.65333 -1.07288e-06 7.6V6ZM65.9887 -9.53674e-07V55.2C65.9887 57.44 66.3621 58.96 67.1087 59.76C67.9087 60.56 69.2421 60.96 71.1088 60.96V62.64C70.0954 62.5867 68.5754 62.5333 66.5487 62.48C64.5221 62.3733 62.4687 62.32 60.3887 62.32C58.3087 62.32 56.2021 62.3733 54.0687 62.48C51.9887 62.5333 50.4154 62.5867 49.3487 62.64V60.96C51.2154 60.96 52.5221 60.56 53.2687 59.76C54.0687 58.96 54.4687 57.44 54.4687 55.2V9.6C54.4687 7.2 54.0954 5.44 53.3487 4.32C52.6554 3.14667 51.3221 2.56 49.3487 2.56V0.880002C51.0554 1.04 52.7087 1.12 54.3087 1.12C56.4954 1.12 58.5754 1.04 60.5487 0.880002C62.5221 0.666668 64.3354 0.373334 65.9887 -9.53674e-07ZM85.5525 63.2C83.1525 63.2 81.1525 62.7467 79.5525 61.84C77.9525 60.9333 76.7792 59.7333 76.0325 58.24C75.2858 56.6933 74.9125 55.0133 74.9125 53.2C74.9125 50.9067 75.4192 49.04 76.4325 47.6C77.4992 46.16 78.8592 44.9867 80.5125 44.08C82.1658 43.1733 83.8992 42.4267 85.7125 41.84C87.5792 41.2533 89.3392 40.6933 90.9925 40.16C92.6992 39.5733 94.0592 38.9067 95.0725 38.16C96.1392 37.36 96.6725 36.3467 96.6725 35.12V28.88C96.6725 27.4933 96.4325 26.2667 95.9525 25.2C95.5258 24.08 94.8325 23.2267 93.8725 22.64C92.9658 22.0533 91.7658 21.76 90.2725 21.76C89.2058 21.76 88.1392 21.92 87.0725 22.24C86.0058 22.5067 85.1258 22.9867 84.4325 23.68C85.9258 24.2133 87.0725 25.04 87.8725 26.16C88.7258 27.2267 89.1525 28.4533 89.1525 29.84C89.1525 31.6533 88.5125 33.0933 87.2325 34.16C86.0058 35.2267 84.5392 35.76 82.8325 35.76C80.9125 35.76 79.4458 35.1733 78.4325 34C77.4725 32.7733 76.9925 31.3067 76.9925 29.6C76.9925 28.0533 77.3658 26.7733 78.1125 25.76C78.9125 24.7467 80.0058 23.7867 81.3925 22.88C82.8858 22.0267 84.6725 21.36 86.7525 20.88C88.8858 20.4 91.1792 20.16 93.6325 20.16C96.0858 20.16 98.2992 20.4267 100.273 20.96C102.246 21.44 103.899 22.3467 105.233 23.68C106.459 24.9067 107.259 26.4267 107.633 28.24C108.006 30 108.193 32.24 108.193 34.96V56.72C108.193 58.0533 108.326 58.9867 108.593 59.52C108.859 60 109.312 60.24 109.952 60.24C110.432 60.24 110.886 60.1067 111.313 59.84C111.793 59.5733 112.299 59.2533 112.833 58.88L113.632 60.24C112.512 61.2 111.206 61.9467 109.713 62.48C108.272 62.96 106.646 63.2 104.833 63.2C102.859 63.2 101.286 62.9333 100.112 62.4C98.9392 61.8133 98.0858 61.04 97.5525 60.08C97.0725 59.12 96.8325 58 96.8325 56.72C95.5525 58.7467 94.0058 60.3467 92.1925 61.52C90.3792 62.64 88.1658 63.2 85.5525 63.2ZM91.2325 58.08C92.2992 58.08 93.2592 57.84 94.1125 57.36C95.0192 56.8267 95.8725 55.9733 96.6725 54.8V38.4C96.1925 39.2 95.5258 39.92 94.6725 40.56C93.8192 41.2 92.9125 41.8667 91.9525 42.56C90.9925 43.2 90.0592 43.92 89.1525 44.72C88.2992 45.52 87.6058 46.5067 87.0725 47.68C86.5392 48.8533 86.2725 50.2667 86.2725 51.92C86.2725 54 86.7258 55.5467 87.6325 56.56C88.5392 57.5733 89.7392 58.08 91.2325 58.08ZM132.159 8.16V21.28H141.599V22.88H132.159V55.2C132.159 56.8 132.452 57.9467 133.039 58.64C133.625 59.28 134.505 59.6 135.679 59.6C136.639 59.6 137.599 59.2533 138.559 58.56C139.519 57.8133 140.372 56.56 141.119 54.8L142.479 55.52C141.625 57.92 140.319 59.8933 138.559 61.44C136.852 62.9867 134.505 63.76 131.519 63.76C129.759 63.76 128.212 63.52 126.879 63.04C125.545 62.6133 124.425 61.9467 123.519 61.04C122.345 59.8667 121.572 58.4267 121.199 56.72C120.825 54.96 120.639 52.6933 120.639 49.92V22.88H113.919V21.28H120.639V10.72C122.879 10.72 124.932 10.5333 126.799 10.16C128.719 9.73333 130.505 9.06667 132.159 8.16ZM164.371 20.16C169.065 20.16 172.745 21.5467 175.411 24.32C178.078 27.0933 179.411 31.6267 179.411 37.92H153.091L152.931 36.4H169.331C169.385 33.7867 169.225 31.3867 168.851 29.2C168.478 26.96 167.891 25.1733 167.091 23.84C166.291 22.5067 165.225 21.84 163.891 21.84C162.025 21.84 160.425 23.0133 159.091 25.36C157.811 27.7067 157.038 31.6 156.771 37.04L157.011 37.52C156.958 38.16 156.905 38.8267 156.851 39.52C156.851 40.2133 156.851 40.9333 156.851 41.68C156.851 45.36 157.358 48.3467 158.371 50.64C159.438 52.9333 160.771 54.6133 162.371 55.68C163.971 56.6933 165.598 57.2 167.251 57.2C168.371 57.2 169.518 57.04 170.691 56.72C171.918 56.3467 173.145 55.7067 174.371 54.8C175.598 53.84 176.745 52.5067 177.811 50.8L179.251 51.28C178.611 53.3067 177.598 55.28 176.211 57.2C174.825 59.12 173.065 60.6933 170.931 61.92C168.798 63.1467 166.238 63.76 163.251 63.76C159.625 63.76 156.425 62.9867 153.651 61.44C150.878 59.8933 148.691 57.5467 147.091 54.4C145.545 51.2533 144.771 47.2533 144.771 42.4C144.771 37.44 145.598 33.3067 147.251 30C148.958 26.6933 151.278 24.24 154.211 22.64C157.198 20.9867 160.585 20.16 164.371 20.16ZM211.095 20.16C212.802 20.16 214.188 20.5333 215.255 21.28C216.322 21.9733 217.095 22.88 217.575 24C218.108 25.12 218.375 26.2933 218.375 27.52C218.375 29.4933 217.788 31.12 216.615 32.4C215.495 33.6267 214.002 34.24 212.135 34.24C210.268 34.24 208.802 33.7867 207.735 32.88C206.722 31.92 206.215 30.6667 206.215 29.12C206.215 27.6267 206.535 26.4 207.175 25.44C207.868 24.4267 208.722 23.5733 209.735 22.88C208.988 22.6667 208.242 22.6933 207.495 22.96C206.482 23.12 205.522 23.5467 204.615 24.24C203.708 24.88 202.935 25.7067 202.295 26.72C201.655 27.68 201.148 28.7467 200.775 29.92C200.402 31.04 200.215 32.1333 200.215 33.2V54.4C200.215 56.96 200.828 58.6933 202.055 59.6C203.335 60.5067 205.228 60.96 207.735 60.96V62.64C206.508 62.5867 204.722 62.5333 202.375 62.48C200.028 62.3733 197.575 62.32 195.015 62.32C192.882 62.32 190.722 62.3733 188.535 62.48C186.348 62.5333 184.695 62.5867 183.575 62.64V60.96C185.442 60.96 186.748 60.56 187.495 59.76C188.295 58.96 188.695 57.44 188.695 55.2V30C188.695 27.6 188.322 25.84 187.575 24.72C186.882 23.5467 185.548 22.96 183.575 22.96V21.28C185.282 21.44 186.935 21.52 188.535 21.52C190.775 21.52 192.855 21.44 194.775 21.28C196.748 21.0667 198.562 20.7733 200.215 20.4V27.84C200.855 26.4 201.708 25.0933 202.775 23.92C203.842 22.7467 205.068 21.84 206.455 21.2C207.842 20.5067 209.388 20.16 211.095 20.16ZM231.959 63.2C229.559 63.2 227.559 62.7467 225.959 61.84C224.359 60.9333 223.185 59.7333 222.439 58.24C221.692 56.6933 221.319 55.0133 221.319 53.2C221.319 50.9067 221.825 49.04 222.839 47.6C223.905 46.16 225.265 44.9867 226.919 44.08C228.572 43.1733 230.305 42.4267 232.119 41.84C233.985 41.2533 235.745 40.6933 237.399 40.16C239.105 39.5733 240.465 38.9067 241.479 38.16C242.545 37.36 243.079 36.3467 243.079 35.12V28.88C243.079 27.4933 242.839 26.2667 242.359 25.2C241.932 24.08 241.239 23.2267 240.279 22.64C239.372 22.0533 238.172 21.76 236.679 21.76C235.612 21.76 234.545 21.92 233.479 22.24C232.412 22.5067 231.532 22.9867 230.839 23.68C232.332 24.2133 233.479 25.04 234.279 26.16C235.132 27.2267 235.559 28.4533 235.559 29.84C235.559 31.6533 234.919 33.0933 233.639 34.16C232.412 35.2267 230.945 35.76 229.239 35.76C227.319 35.76 225.852 35.1733 224.839 34C223.879 32.7733 223.399 31.3067 223.399 29.6C223.399 28.0533 223.772 26.7733 224.519 25.76C225.319 24.7467 226.412 23.7867 227.799 22.88C229.292 22.0267 231.079 21.36 233.159 20.88C235.292 20.4 237.585 20.16 240.039 20.16C242.492 20.16 244.705 20.4267 246.679 20.96C248.652 21.44 250.305 22.3467 251.639 23.68C252.865 24.9067 253.665 26.4267 254.039 28.24C254.412 30 254.599 32.24 254.599 34.96V56.72C254.599 58.0533 254.732 58.9867 254.999 59.52C255.265 60 255.719 60.24 256.359 60.24C256.839 60.24 257.292 60.1067 257.719 59.84C258.199 59.5733 258.705 59.2533 259.239 58.88L260.039 60.24C258.919 61.2 257.612 61.9467 256.119 62.48C254.679 62.96 253.052 63.2 251.239 63.2C249.265 63.2 247.692 62.9333 246.519 62.4C245.345 61.8133 244.492 61.04 243.959 60.08C243.479 59.12 243.239 58 243.239 56.72C241.959 58.7467 240.412 60.3467 238.599 61.52C236.785 62.64 234.572 63.2 231.959 63.2ZM237.639 58.08C238.705 58.08 239.665 57.84 240.519 57.36C241.425 56.8267 242.279 55.9733 243.079 54.8V38.4C242.599 39.2 241.932 39.92 241.079 40.56C240.225 41.2 239.319 41.8667 238.359 42.56C237.399 43.2 236.465 43.92 235.559 44.72C234.705 45.52 234.012 46.5067 233.479 47.68C232.945 48.8533 232.679 50.2667 232.679 51.92C232.679 54 233.132 55.5467 234.039 56.56C234.945 57.5733 236.145 58.08 237.639 58.08Z" fill="black"/>
</svg>
