<svg width="343" height="107" viewBox="0 0 343 107" fill="none" xmlns="http://www.w3.org/2000/svg">
<path d="M82.1575 30.36C83.4908 30.4133 85.2775 30.4667 87.5175 30.52C89.8108 30.5733 92.0775 30.6 94.3175 30.6C96.8775 30.6 99.3575 30.5733 101.758 30.52C104.158 30.4667 105.864 30.44 106.878 30.44C114.291 30.44 119.838 31.9067 123.517 34.84C127.198 37.7733 129.038 41.56 129.038 46.2C129.038 48.12 128.664 50.1467 127.918 52.28C127.171 54.36 125.891 56.3067 124.078 58.12C122.318 59.88 119.891 61.32 116.798 62.44C113.704 63.56 109.811 64.12 105.118 64.12H96.9575V62.52H104.318C107.464 62.52 109.838 61.8 111.438 60.36C113.091 58.92 114.211 57.0267 114.798 54.68C115.438 52.3333 115.758 49.8 115.758 47.08C115.758 42.0133 115.011 38.2267 113.518 35.72C112.024 33.2133 109.464 31.96 105.838 31.96C103.758 31.96 102.398 32.4133 101.758 33.32C101.171 34.2267 100.878 36.0667 100.878 38.84V78.04C100.878 80.12 101.091 81.6667 101.518 82.68C101.944 83.6933 102.771 84.36 103.998 84.68C105.224 85 107.038 85.1867 109.438 85.24V87C107.784 86.9467 105.651 86.8933 103.038 86.84C100.424 86.7867 97.6775 86.76 94.7975 86.76C92.5042 86.76 90.2642 86.7867 88.0775 86.84C85.8908 86.8933 83.9175 86.9467 82.1575 87V85.4C83.8642 85.2933 85.1442 85.08 85.9975 84.76C86.8508 84.44 87.4108 83.8 87.6775 82.84C87.9975 81.88 88.1575 80.44 88.1575 78.52V38.84C88.1575 36.8667 87.9975 35.4267 87.6775 34.52C87.4108 33.56 86.8242 32.92 85.9175 32.6C85.0642 32.2267 83.8108 32.0133 82.1575 31.96V30.36ZM148.146 24.36V79.56C148.146 81.8 148.52 83.32 149.266 84.12C150.066 84.92 151.4 85.32 153.266 85.32V87C152.253 86.9467 150.733 86.8933 148.706 86.84C146.68 86.7333 144.626 86.68 142.546 86.68C140.466 86.68 138.36 86.7333 136.226 86.84C134.146 86.8933 132.573 86.9467 131.506 87V85.32C133.373 85.32 134.68 84.92 135.426 84.12C136.226 83.32 136.626 81.8 136.626 79.56V33.96C136.626 31.56 136.253 29.8 135.506 28.68C134.813 27.5067 133.48 26.92 131.506 26.92V25.24C133.213 25.4 134.866 25.48 136.466 25.48C138.653 25.48 140.733 25.4 142.706 25.24C144.68 25.0267 146.493 24.7333 148.146 24.36ZM167.71 87.56C165.31 87.56 163.31 87.1067 161.71 86.2C160.11 85.2933 158.937 84.0933 158.19 82.6C157.443 81.0533 157.07 79.3733 157.07 77.56C157.07 75.2667 157.577 73.4 158.59 71.96C159.657 70.52 161.017 69.3467 162.67 68.44C164.323 67.5333 166.057 66.7867 167.87 66.2C169.737 65.6133 171.497 65.0533 173.15 64.52C174.857 63.9333 176.217 63.2667 177.23 62.52C178.297 61.72 178.83 60.7067 178.83 59.48V53.24C178.83 51.8533 178.59 50.6267 178.11 49.56C177.683 48.44 176.99 47.5867 176.03 47C175.123 46.4133 173.923 46.12 172.43 46.12C171.363 46.12 170.297 46.28 169.23 46.6C168.163 46.8667 167.283 47.3467 166.59 48.04C168.083 48.5733 169.23 49.4 170.03 50.52C170.883 51.5867 171.31 52.8133 171.31 54.2C171.31 56.0133 170.67 57.4533 169.39 58.52C168.163 59.5867 166.697 60.12 164.99 60.12C163.07 60.12 161.603 59.5333 160.59 58.36C159.63 57.1333 159.15 55.6667 159.15 53.96C159.15 52.4133 159.523 51.1333 160.27 50.12C161.07 49.1067 162.163 48.1467 163.55 47.24C165.043 46.3867 166.83 45.72 168.91 45.24C171.043 44.76 173.337 44.52 175.79 44.52C178.243 44.52 180.457 44.7867 182.43 45.32C184.403 45.8 186.057 46.7067 187.39 48.04C188.617 49.2667 189.417 50.7867 189.79 52.6C190.163 54.36 190.35 56.6 190.35 59.32V81.08C190.35 82.4133 190.483 83.3467 190.75 83.88C191.017 84.36 191.47 84.6 192.11 84.6C192.59 84.6 193.043 84.4667 193.47 84.2C193.95 83.9333 194.457 83.6133 194.99 83.24L195.79 84.6C194.67 85.56 193.363 86.3067 191.87 86.84C190.43 87.32 188.803 87.56 186.99 87.56C185.017 87.56 183.443 87.2933 182.27 86.76C181.097 86.1733 180.243 85.4 179.71 84.44C179.23 83.48 178.99 82.36 178.99 81.08C177.71 83.1067 176.163 84.7067 174.35 85.88C172.537 87 170.323 87.56 167.71 87.56ZM173.39 82.44C174.457 82.44 175.417 82.2 176.27 81.72C177.177 81.1867 178.03 80.3333 178.83 79.16V62.76C178.35 63.56 177.683 64.28 176.83 64.92C175.977 65.56 175.07 66.2267 174.11 66.92C173.15 67.56 172.217 68.28 171.31 69.08C170.457 69.88 169.763 70.8667 169.23 72.04C168.697 73.2133 168.43 74.6267 168.43 76.28C168.43 78.36 168.883 79.9067 169.79 80.92C170.697 81.9333 171.897 82.44 173.39 82.44ZM214.316 32.52V45.64H223.756V47.24H214.316V79.56C214.316 81.16 214.61 82.3067 215.196 83C215.783 83.64 216.663 83.96 217.836 83.96C218.796 83.96 219.756 83.6133 220.716 82.92C221.676 82.1733 222.53 80.92 223.276 79.16L224.636 79.88C223.783 82.28 222.476 84.2533 220.716 85.8C219.01 87.3467 216.663 88.12 213.676 88.12C211.916 88.12 210.37 87.88 209.036 87.4C207.703 86.9733 206.583 86.3067 205.676 85.4C204.503 84.2267 203.73 82.7867 203.356 81.08C202.983 79.32 202.796 77.0533 202.796 74.28V47.24H196.076V45.64H202.796V35.08C205.036 35.08 207.09 34.8933 208.956 34.52C210.876 34.0933 212.663 33.4267 214.316 32.52ZM246.529 44.52C251.222 44.52 254.902 45.9067 257.569 48.68C260.235 51.4533 261.569 55.9867 261.569 62.28H235.249L235.089 60.76H251.489C251.542 58.1467 251.382 55.7467 251.009 53.56C250.635 51.32 250.049 49.5333 249.249 48.2C248.449 46.8667 247.382 46.2 246.049 46.2C244.182 46.2 242.582 47.3733 241.249 49.72C239.969 52.0667 239.195 55.96 238.929 61.4L239.169 61.88C239.115 62.52 239.062 63.1867 239.009 63.88C239.009 64.5733 239.009 65.2933 239.009 66.04C239.009 69.72 239.515 72.7067 240.529 75C241.595 77.2933 242.929 78.9733 244.529 80.04C246.129 81.0533 247.755 81.56 249.409 81.56C250.529 81.56 251.675 81.4 252.849 81.08C254.075 80.7067 255.302 80.0667 256.529 79.16C257.755 78.2 258.902 76.8667 259.969 75.16L261.409 75.64C260.769 77.6667 259.755 79.64 258.369 81.56C256.982 83.48 255.222 85.0533 253.089 86.28C250.955 87.5067 248.395 88.12 245.409 88.12C241.782 88.12 238.582 87.3467 235.809 85.8C233.035 84.2533 230.849 81.9067 229.249 78.76C227.702 75.6133 226.929 71.6133 226.929 66.76C226.929 61.8 227.755 57.6667 229.409 54.36C231.115 51.0533 233.435 48.6 236.369 47C239.355 45.3467 242.742 44.52 246.529 44.52ZM293.253 44.52C294.959 44.52 296.346 44.8933 297.413 45.64C298.479 46.3333 299.253 47.24 299.733 48.36C300.266 49.48 300.533 50.6533 300.533 51.88C300.533 53.8533 299.946 55.48 298.773 56.76C297.653 57.9867 296.159 58.6 294.293 58.6C292.426 58.6 290.959 58.1467 289.893 57.24C288.879 56.28 288.373 55.0267 288.373 53.48C288.373 51.9867 288.693 50.76 289.333 49.8C290.026 48.7867 290.879 47.9333 291.893 47.24C291.146 47.0267 290.399 47.0533 289.653 47.32C288.639 47.48 287.679 47.9067 286.773 48.6C285.866 49.24 285.093 50.0667 284.453 51.08C283.813 52.04 283.306 53.1067 282.933 54.28C282.559 55.4 282.373 56.4933 282.373 57.56V78.76C282.373 81.32 282.986 83.0533 284.213 83.96C285.493 84.8667 287.386 85.32 289.893 85.32V87C288.666 86.9467 286.879 86.8933 284.533 86.84C282.186 86.7333 279.733 86.68 277.173 86.68C275.039 86.68 272.879 86.7333 270.693 86.84C268.506 86.8933 266.853 86.9467 265.733 87V85.32C267.599 85.32 268.906 84.92 269.653 84.12C270.453 83.32 270.853 81.8 270.853 79.56V54.36C270.853 51.96 270.479 50.2 269.733 49.08C269.039 47.9067 267.706 47.32 265.733 47.32V45.64C267.439 45.8 269.093 45.88 270.693 45.88C272.933 45.88 275.013 45.8 276.933 45.64C278.906 45.4267 280.719 45.1333 282.373 44.76V52.2C283.013 50.76 283.866 49.4533 284.932 48.28C285.999 47.1067 287.226 46.2 288.613 45.56C289.999 44.8667 291.546 44.52 293.253 44.52ZM314.116 87.56C311.716 87.56 309.716 87.1067 308.116 86.2C306.516 85.2933 305.343 84.0933 304.596 82.6C303.85 81.0533 303.476 79.3733 303.476 77.56C303.476 75.2667 303.983 73.4 304.996 71.96C306.063 70.52 307.423 69.3467 309.076 68.44C310.73 67.5333 312.463 66.7867 314.276 66.2C316.143 65.6133 317.903 65.0533 319.556 64.52C321.263 63.9333 322.623 63.2667 323.636 62.52C324.703 61.72 325.236 60.7067 325.236 59.48V53.24C325.236 51.8533 324.996 50.6267 324.516 49.56C324.09 48.44 323.396 47.5867 322.436 47C321.53 46.4133 320.33 46.12 318.836 46.12C317.77 46.12 316.703 46.28 315.636 46.6C314.57 46.8667 313.69 47.3467 312.996 48.04C314.49 48.5733 315.636 49.4 316.436 50.52C317.29 51.5867 317.716 52.8133 317.716 54.2C317.716 56.0133 317.076 57.4533 315.796 58.52C314.57 59.5867 313.103 60.12 311.396 60.12C309.476 60.12 308.01 59.5333 306.996 58.36C306.036 57.1333 305.556 55.6667 305.556 53.96C305.556 52.4133 305.93 51.1333 306.676 50.12C307.476 49.1067 308.57 48.1467 309.956 47.24C311.45 46.3867 313.236 45.72 315.316 45.24C317.45 44.76 319.743 44.52 322.196 44.52C324.65 44.52 326.863 44.7867 328.836 45.32C330.81 45.8 332.463 46.7067 333.796 48.04C335.023 49.2667 335.823 50.7867 336.196 52.6C336.57 54.36 336.756 56.6 336.756 59.32V81.08C336.756 82.4133 336.89 83.3467 337.156 83.88C337.423 84.36 337.876 84.6 338.516 84.6C338.996 84.6 339.45 84.4667 339.876 84.2C340.356 83.9333 340.863 83.6133 341.396 83.24L342.196 84.6C341.076 85.56 339.77 86.3067 338.276 86.84C336.836 87.32 335.21 87.56 333.396 87.56C331.423 87.56 329.85 87.2933 328.676 86.76C327.503 86.1733 326.65 85.4 326.116 84.44C325.636 83.48 325.396 82.36 325.396 81.08C324.116 83.1067 322.57 84.7067 320.756 85.88C318.943 87 316.73 87.56 314.116 87.56ZM319.796 82.44C320.863 82.44 321.823 82.2 322.676 81.72C323.583 81.1867 324.436 80.3333 325.236 79.16V62.76C324.756 63.56 324.09 64.28 323.236 64.92C322.383 65.56 321.476 66.2267 320.516 66.92C319.556 67.56 318.623 68.28 317.716 69.08C316.863 69.88 316.17 70.8667 315.636 72.04C315.103 73.2133 314.836 74.6267 314.836 76.28C314.836 78.36 315.29 79.9067 316.196 80.92C317.103 81.9333 318.303 82.44 319.796 82.44Z" fill="black"/>
<g clip-path="url(#clip0_5_8)">
<path d="M34.6667 39.3333L29.6833 44.3167C28.4924 45.5317 27.8253 47.1653 27.8253 48.8667C27.8253 50.5681 28.4924 52.2016 29.6833 53.4167L33.5833 57.3167C34.7984 58.5076 36.4319 59.1747 38.1333 59.1747C39.8347 59.1747 41.4683 58.5076 42.6833 57.3167L47.6667 52.3333" stroke="#D97706" stroke-width="8" stroke-linecap="round" stroke-linejoin="round"/>
<path d="M32.5 67.5L7.15 42.15C6.28524 42.9973 5.59824 44.0086 5.12925 45.1247C4.66025 46.2409 4.41867 47.4393 4.41867 48.65C4.41867 49.8607 4.66025 51.0591 5.12925 52.1753C5.59824 53.2914 6.28524 54.3027 7.15 55.15L22.9667 70.9667C24.4833 72.4833 27.3 72.4833 29.0333 70.9667L32.5 67.5ZM32.5 67.5L47.6667 82.6667" stroke="#D97706" stroke-width="8" stroke-linecap="round" stroke-linejoin="round"/>
<path d="M4.54999 82.2333L18.4167 68.5833" stroke="#D97706" stroke-width="8" stroke-linecap="round" stroke-linejoin="round"/>
<path d="M41.1667 45.8333L26 61" stroke="#D97706" stroke-width="8" stroke-linecap="round" stroke-linejoin="round"/>
</g>
<defs>
<clipPath id="clip0_5_8">
<rect width="52" height="52" fill="white" transform="translate(0 35)"/>
</clipPath>
</defs>
</svg>
